<?xml version="1.0" encoding="UTF-8"?>
<svg version="1.1" xmlns="http://www.w3.org/2000/svg" width="290" height="290">
<path d="M0 0 C20.91525812 -0.64744406 40.80664639 6.55513856 56.07128906 20.85668945 C69.08489031 33.42961626 78.73461038 49.96156745 79.49658203 68.44628906 C79.49951261 70.35116823 79.45559143 72.2560192 79.40234375 74.16015625 C80.66046875 74.49015625 81.91859375 74.82015625 83.21484375 75.16015625 C92.22048063 78.17626213 99.51860979 84.07673452 104.40234375 92.16015625 C104.07234375 92.82015625 103.74234375 93.48015625 103.40234375 94.16015625 C83.27234375 94.16015625 63.14234375 94.16015625 42.40234375 94.16015625 C41.41234375 97.13015625 40.42234375 100.10015625 39.40234375 103.16015625 C38.75338139 104.83379602 38.09653938 106.50476667 37.40234375 108.16015625 C36.08234375 108.16015625 34.76234375 108.16015625 33.40234375 108.16015625 C29.44796079 100.82962558 26.70617456 93.10576658 23.90234375 85.28515625 C20.86443684 76.8570814 17.81359713 68.44637417 14.40234375 60.16015625 C11.8677558 63.96203817 10.03583006 67.97087868 8.08984375 72.09765625 C7.71150391 72.88978516 7.33316406 73.68191406 6.94335938 74.49804688 C3.8738356 80.98507767 1.17101244 87.51535139 -1.59765625 94.16015625 C-47.13765625 94.16015625 -92.67765625 94.16015625 -139.59765625 94.16015625 C-138.27742344 84.91852659 -134.12047077 79.21890348 -127.19921875 73.0078125 C-122.73996062 69.71027049 -118.52775153 67.74588701 -113.28515625 65.97265625 C-109.63490317 64.56656386 -108.01075474 63.84534365 -105.97265625 60.46484375 C-105.17901172 58.38152686 -104.42763177 56.28163087 -103.71875 54.16796875 C-101.01253993 46.90740516 -95.59432154 42.67767235 -88.90625 39.16796875 C-83.81395525 36.94493653 -79.61531001 35.90018672 -74.03515625 35.97265625 C-72.39353516 35.98232422 -72.39353516 35.98232422 -70.71875 35.9921875 C-67.9041236 36.14366301 -65.33782395 36.52231461 -62.59765625 37.16015625 C-62.19675781 36.62648437 -61.79585938 36.0928125 -61.3828125 35.54296875 C-46.86145445 16.51044051 -30.56070293 4.64576758 -6.66015625 0.47265625 C-4.44201039 0.26204442 -2.22396973 0.13711693 0 0 Z " fill="#01A9E3" transform="translate(161.59765625,63.83984375)"/>
<path d="M0 0 C1.85205078 0.17358398 1.85205078 0.17358398 4 1 C5.27685547 3.24633789 5.27685547 3.24633789 6.3671875 6.22265625 C6.77501465 7.3113501 7.1828418 8.40004395 7.60302734 9.52172852 C8.02277832 10.69018311 8.4425293 11.8586377 8.875 13.0625 C9.31408691 14.24448975 9.75317383 15.42647949 10.20556641 16.64428711 C11.48400408 20.09136004 12.74324973 23.54497369 14 27 C14.87669383 29.371614 15.75854873 31.74115721 16.64501953 34.10913086 C17.31993979 35.91516331 17.98464698 37.72500357 18.6484375 39.53515625 C20.29455972 43.75512853 22.12858063 47.87598945 24 52 C24.22139648 51.40574219 24.44279297 50.81148437 24.67089844 50.19921875 C25.69272466 47.46442475 26.7213135 44.73222053 27.75 42 C28.09804687 41.06542969 28.44609375 40.13085938 28.8046875 39.16796875 C29.15273437 38.24628906 29.50078125 37.32460937 29.859375 36.375 C30.17358398 35.53710938 30.48779297 34.69921875 30.81152344 33.8359375 C32.3593713 30.14246979 34.20904848 26.58190304 36 23 C56.46 23 76.92 23 98 23 C101.16146107 32.48438321 99.82454219 44.99007534 95.8046875 53.9609375 C90.35844108 63.13232216 83.16993645 70.30486761 73 74 C72.11856827 74.3422313 71.23713654 74.6844626 70.32899475 75.03706455 C66.60214548 76.11508225 63.19079517 76.28754582 59.34936523 76.27415466 C58.59865942 76.27939134 57.84795361 76.28462802 57.07449913 76.29002339 C54.5691428 76.30497625 52.06399157 76.30572751 49.55859375 76.30639648 C47.75778358 76.31402144 45.95697667 76.32244952 44.15617371 76.33161926 C39.26937489 76.35354507 34.38263865 76.36236125 29.4957962 76.36744571 C26.43792483 76.37109324 23.38006974 76.37733555 20.32220459 76.3844471 C9.64008874 76.40894035 -1.0419786 76.42199206 -11.72412109 76.42553711 C-21.65680168 76.42916651 -31.58917216 76.45901951 -41.52175808 76.50094169 C-50.06641151 76.53573198 -58.61096266 76.5510871 -67.15568638 76.55178314 C-72.25122902 76.55257334 -77.34645604 76.5611924 -82.44192505 76.58978081 C-87.24212331 76.61610963 -92.0417477 76.61808462 -96.8419857 76.60212517 C-98.5938105 76.60032207 -100.34566942 76.60689718 -102.09742165 76.62294388 C-117.46450273 76.7550112 -129.60351919 74.30202545 -141.3671875 63.74609375 C-150.41933333 54.3044639 -155.15713137 42.79533691 -155.125 29.75 C-155.12757813 28.69296875 -155.13015625 27.6359375 -155.1328125 26.546875 C-155 24 -155 24 -154 23 C-151.92721755 22.83861205 -149.84884271 22.7491313 -147.77075195 22.68579102 C-146.770864 22.65480348 -146.770864 22.65480348 -145.75077629 22.62318993 C-143.47591104 22.5559631 -141.20093707 22.4979128 -138.92578125 22.44140625 C-138.12517084 22.42034883 -137.32456043 22.39929142 -136.4996891 22.3775959 C-112.62407306 21.76496304 -88.73967911 21.88682698 -64.85827637 21.93133545 C-58.6483597 21.94176413 -52.43843862 21.94617389 -46.22851562 21.95117188 C-34.15233262 21.96173731 -22.07616851 21.97868903 -10 22 C-8.70326398 19.46080994 -7.41252163 16.91885762 -6.125 14.375 C-5.57779297 13.30572266 -5.57779297 13.30572266 -5.01953125 12.21484375 C-2.99999073 8.21248163 -1.2918889 4.31082927 0 0 Z " fill="#535353" transform="translate(173,144)"/>
<path d="M0 0 C0.99 0.495 0.99 0.495 2 1 C-0.475 6.94 -0.475 6.94 -3 13 C-48.54 13 -94.08 13 -141 13 C-139.875 5.125 -139.875 5.125 -136 2 C-136.33 3.98 -136.66 5.96 -137 8 C-137.66 8 -138.32 8 -139 8 C-139 9.32 -139 10.64 -139 12 C-137.8280307 11.98120789 -137.8280307 11.98120789 -136.63238525 11.96203613 C-126.50502846 11.80080567 -116.37756709 11.64740696 -106.25 11.5 C-105.43432178 11.48812275 -104.61864357 11.4762455 -103.77824783 11.46400833 C-71.18322538 10.99270398 -38.59822481 10.87722107 -6 11 C-5.85304687 10.39414063 -5.70609375 9.78828125 -5.5546875 9.1640625 C-4.44752083 4.84455311 -3.80547681 2.53698454 0 0 Z " fill="#347B97" transform="translate(163,145)"/>
<path d="M0 0 C8.44830235 1.19162312 15.71809139 6.91717663 20.9765625 13.421875 C22 15 22 15 23 18 C22 19 22 19 19.56394958 19.12025452 C18.48251175 19.11803391 17.40107391 19.11581329 16.28686523 19.11352539 C15.0656749 19.11344986 13.84448456 19.11337433 12.58628845 19.11329651 C11.24372314 19.10818911 9.90115825 19.10297311 8.55859375 19.09765625 C7.19238842 19.09579199 5.82618243 19.09436813 4.4599762 19.09336853 C0.85798305 19.08954394 -2.74397 19.07971417 -6.34594727 19.06866455 C-10.01903745 19.05844916 -13.69213409 19.05387064 -17.36523438 19.04882812 C-24.57684123 19.03809184 -31.788415 19.02101614 -39 19 C-39.99 21.97 -40.98 24.94 -42 28 C-42.33 28 -42.66 28 -43 28 C-43 25.03 -43 22.06 -43 19 C-42.01 19 -41.02 19 -40 19 C-40 18.34 -40 17.68 -40 17 C-21.52 16.67 -3.04 16.34 16 16 C16 14.35 16 12.7 16 11 C13.525 10.505 13.525 10.505 11 10 C11 9.01 11 8.02 11 7 C8.69 6.67 6.38 6.34 4 6 C4 5.34 4 4.68 4 4 C2.68 3.67 1.36 3.34 0 3 C0 2.01 0 1.02 0 0 Z " fill="#1D9BC4" transform="translate(243,139)"/>
<path d="M0 0 C0 5.05239257 -3.5458267 8.51819331 -7 12 C-10.375 13.125 -10.375 13.125 -13 13 C-13.495 12.505 -13.495 12.505 -14 12 C-23.92512273 11.23789236 -32.5060333 11.97786604 -40.34765625 18.4375 C-43.75657371 21.66106261 -45.06345509 25.07682054 -46.5 29.4375 C-46.88478516 30.59958984 -46.88478516 30.59958984 -47.27734375 31.78515625 C-47.88406371 33.64467094 -48.47514328 35.50927867 -49.0625 37.375 C-51.70713525 40.95805422 -54.37877621 41.3328573 -58.625 42.26171875 C-61.27008975 43.08395882 -62.09092396 44.07581254 -64 46 C-66.26171875 46.73046875 -66.26171875 46.73046875 -68.6875 47.1875 C-69.49574219 47.34605469 -70.30398437 47.50460938 -71.13671875 47.66796875 C-71.75160156 47.77753906 -72.36648437 47.88710937 -73 48 C-67.9324545 41.8465519 -60.46543369 38.4884779 -53 36 C-51.77611306 33.48160533 -51.77611306 33.48160533 -50.75 30.4375 C-46.92738511 20.85820913 -41.46558549 15.13218453 -32 11 C-27.65442291 9.30084383 -24.09748982 8.75198065 -19.4375 8.8125 C-17.79587891 8.82216797 -17.79587891 8.82216797 -16.12109375 8.83203125 C-13.30646735 8.98350676 -10.7401677 9.36215836 -8 10 C-7.50628906 9.36191406 -7.01257813 8.72382812 -6.50390625 8.06640625 C-5.86324219 7.24011719 -5.22257812 6.41382812 -4.5625 5.5625 C-3.92441406 4.73878906 -3.28632812 3.91507812 -2.62890625 3.06640625 C-1 1 -1 1 0 0 Z " fill="#156F89" transform="translate(107,91)"/>
<path d="M0 0 C4.54892992 4.14755375 7.80483515 8.75080061 11 14 C11.66902344 15.09248047 11.66902344 15.09248047 12.3515625 16.20703125 C15.27380385 21.46885846 16.90917603 26.80996843 18.3125 32.625 C18.48410645 33.32947266 18.65571289 34.03394531 18.83251953 34.75976562 C19.91561425 39.59811575 20.15034197 44.04428334 20 49 C20.66 49.33 21.32 49.66 22 50 C20.68 50 19.36 50 18 50 C17.87625 48.9275 17.7525 47.855 17.625 46.75 C17.24050214 43.20754173 17.24050214 43.20754173 15.9921875 41.1171875 C14.39277541 37.7042688 14.54319452 34.18057776 14.34375 30.4609375 C14.22762611 27.82596806 14.22762611 27.82596806 12 26 C11.60235737 24.01178687 11.26224651 22.01055661 11 20 C10.34 20 9.68 20 9 20 C9 18.68 9 17.36 9 16 C8.01 15.67 7.02 15.34 6 15 C5.15625 13.07421875 5.15625 13.07421875 4.5 10.6875 C3.45753115 7.21260384 2.35622804 4.80503339 0 2 C0 1.34 0 0.68 0 0 Z " fill="#105568" transform="translate(221,89)"/>
<path d="M0 0 C0.66 0.33 1.32 0.66 2 1 C1.67 1.66 1.34 2.32 1 3 C0.34 3 -0.32 3 -1 3 C-1.33 3.99 -1.66 4.98 -2 6 C-2.94875 6.0825 -3.8975 6.165 -4.875 6.25 C-5.90625 6.4975 -6.9375 6.745 -8 7 C-8.69813507 8.31712932 -9.36049831 9.65342664 -10 11 C-14.43325945 15.83072409 -18.54390029 18.7894813 -25 20 C-21.34189793 11.42632326 -11.85842292 6.2617354 -4 2 C-3.28457031 1.59523438 -2.56914062 1.19046875 -1.83203125 0.7734375 C-1.22746094 0.51820312 -0.62289062 0.26296875 0 0 Z " fill="#10627D" transform="translate(133,71)"/>
<path d="M0 0 C14.22016957 2.16917841 24.14157442 10.17710028 34 20 C31 20 31 20 28 18 C26.34450469 17.61500109 24.6777567 17.27206865 23 17 C23 16.01 23 15.02 23 14 C22.34 14 21.68 14 21 14 C21 13.01 21 12.02 21 11 C19.63875 10.7834375 19.63875 10.7834375 18.25 10.5625 C15.78523044 10.13590527 13.41152893 9.64925779 11 9 C11 8.01 11 7.02 11 6 C8.03 5.01 5.06 4.02 2 3 C2 2.34 2 1.68 2 1 C1.34 0.67 0.68 0.34 0 0 Z " fill="#176A81" transform="translate(187,68)"/>
<path d="M0 0 C0.99 0.495 0.99 0.495 2 1 C1.35731563 2.64706553 0.71076198 4.29262175 0.0625 5.9375 C-0.29714844 6.85402344 -0.65679687 7.77054688 -1.02734375 8.71484375 C-2 11 -2 11 -3 12 C-4.96369153 12.0940067 -6.93079199 12.11743381 -8.89672852 12.11352539 C-10.15796036 12.11344986 -11.4191922 12.11337433 -12.71864319 12.11329651 C-14.10539794 12.1081891 -15.49215229 12.10297309 -16.87890625 12.09765625 C-18.28995209 12.09579201 -19.70099857 12.09436814 -21.11204529 12.09336853 C-24.83240535 12.08954379 -28.5527266 12.0797139 -32.27307129 12.06866455 C-36.06680781 12.05844948 -39.86055058 12.05387071 -43.65429688 12.04882812 C-51.10288231 12.03809158 -58.55143572 12.0210157 -66 12 C-66 11.67 -66 11.34 -66 11 C-46.2 11 -26.4 11 -6 11 C-5.67 9.68 -5.34 8.36 -5 7 C-3.75278368 3.25835104 -3.3906569 2.26043793 0 0 Z " fill="#1D9EC9" transform="translate(163,145)"/>
<path d="M0 0 C0 5.05239257 -3.5458267 8.51819331 -7 12 C-10.375 13.125 -10.375 13.125 -13 13 C-13.495 12.505 -13.495 12.505 -14 12 C-25.31803918 11.13093628 -33.33892072 12.61925418 -42 20 C-42.99 20.78375 -43.98 21.5675 -45 22.375 C-45.66 22.91125 -46.32 23.4475 -47 24 C-43.83322417 16.86706804 -37.04038503 12.83067027 -30 10 C-26.51165019 8.86443081 -23.21690288 8.86655051 -19.5625 8.875 C-18.45003906 8.87242188 -17.33757812 8.86984375 -16.19140625 8.8671875 C-13.33622508 8.98600777 -10.77492054 9.34646731 -8 10 C-7.50628906 9.36191406 -7.01257813 8.72382812 -6.50390625 8.06640625 C-5.54291016 6.82697266 -5.54291016 6.82697266 -4.5625 5.5625 C-3.92441406 4.73878906 -3.28632812 3.91507812 -2.62890625 3.06640625 C-1 1 -1 1 0 0 Z " fill="#123946" transform="translate(107,91)"/>
<path d="M0 0 C2 0 2 0 3.5 1.4375 C5.30945099 4.52864544 5.89875329 7.38562021 6.5703125 10.87890625 C6.99058031 13.17436697 6.99058031 13.17436697 8 16 C8.66 16.33 9.32 16.66 10 17 C10.59765625 19.14453125 10.59765625 19.14453125 11.0625 21.8125 C11.61595878 24.90912474 12.19851375 27.95718935 13 31 C14.65 30.67 16.3 30.34 18 30 C17.67 31.65 17.34 33.3 17 35 C15.68 35 14.36 35 13 35 C9.40683397 28.2586931 6.79993828 21.31798552 4.25 14.125 C3.83878906 12.98546875 3.42757812 11.8459375 3.00390625 10.671875 C0 2.2689213 0 2.2689213 0 0 Z " fill="#176075" transform="translate(182,137)"/>
<path d="M0 0 C0 0.33 0 0.66 0 1 C-6.13691139 1.0998774 -11.91904637 0.88450235 -18 0 C-26.74811418 -0.56387476 -37.5558198 -0.28482237 -45.69921875 3.1328125 C-48.30272906 4.11410162 -49.43339829 3.95059323 -52 3 C-49.50261142 2.17865011 -47.00255195 1.36784252 -44.5 0.5625 C-43.80390625 0.33240234 -43.1078125 0.10230469 -42.390625 -0.13476562 C-28.07902424 -4.70652698 -14.39359431 -3.06868508 0 0 Z " fill="#1B5869" transform="translate(187,67)"/>
<path d="M0 0 C0.99 0.99 1.98 1.98 3 3 C2.67 3.66 2.34 4.32 2 5 C-18.13 5 -38.26 5 -59 5 C-59.99 7.97 -60.98 10.94 -62 14 C-62.33 14 -62.66 14 -63 14 C-63 11.03 -63 8.06 -63 5 C-59.79652541 3.93217514 -57.51812177 3.87941694 -54.15161133 3.88647461 C-52.35008354 3.88658791 -52.35008354 3.88658791 -50.51216125 3.88670349 C-48.5667469 3.89444542 -48.5667469 3.89444542 -46.58203125 3.90234375 C-45.24110466 3.90420923 -43.90017739 3.90563252 -42.55924988 3.90663147 C-39.03290927 3.91044644 -35.50660996 3.92026801 -31.98028564 3.93133545 C-28.38074299 3.9415715 -24.78119365 3.94613379 -21.18164062 3.95117188 C-14.12107687 3.9618912 -7.06054113 3.97895538 0 4 C0 2.68 0 1.36 0 0 Z " fill="#347C99" transform="translate(263,153)"/>
<path d="M0 0 C1.125 3.75 1.125 3.75 0 6 C-0.66 6 -1.32 6 -2 6 C-2 7.32 -2 8.64 -2 10 C10.87 10 23.74 10 37 10 C37 10.33 37 10.66 37 11 C23.47 11 9.94 11 -4 11 C-2.875 3.125 -2.875 3.125 0 0 Z " fill="#347A98" transform="translate(26,147)"/>
<path d="M0 0 C4.21135709 0.57323372 7.01294352 2.00701617 10.5625 4.3125 C11.49191406 4.90675781 12.42132813 5.50101563 13.37890625 6.11328125 C15.85991523 7.89916402 17.91240637 9.77487079 20 12 C19.67 12.66 19.34 13.32 19 14 C18.34 13.34 17.68 12.68 17 12 C15.01643517 11.28591666 13.01684563 10.61382258 11 10 C11 9.01 11 8.02 11 7 C8.69 6.67 6.38 6.34 4 6 C4 5.34 4 4.68 4 4 C2.68 3.67 1.36 3.34 0 3 C0 2.01 0 1.02 0 0 Z " fill="#125A6E" transform="translate(243,139)"/>
<path d="M0 0 C0.66 0 1.32 0 2 0 C1.35014905 4.71370756 -0.51561392 8.57686444 -2.5625 12.8125 C-3.0565332 13.85180664 -3.0565332 13.85180664 -3.56054688 14.91210938 C-4.36872251 16.61044948 -5.18368377 18.30555769 -6 20 C-6.66 20 -7.32 20 -8 20 C-8 18.02 -8 16.04 -8 14 C-7.34 13.67 -6.68 13.34 -6 13 C-5.34227572 9.97065509 -5.34227572 9.97065509 -5 7 C-4.01 7 -3.02 7 -2 7 C-2 5.35 -2 3.7 -2 2 C-1.34 2 -0.68 2 0 2 C0 1.34 0 0.68 0 0 Z " fill="#155F76" transform="translate(172,124)"/>
<path d="M0 0 C1.32827107 2.65654214 0.72245548 3.59432385 -0.1875 6.375 C-1.51848204 10.10414788 -2.64209511 12.69743665 -6 15 C-9.25 15.75 -9.25 15.75 -12 16 C-10 14 -10 14 -7 13 C-5.59973392 10.24960681 -5.59973392 10.24960681 -4.4375 7 C-2.20509091 1.10254545 -2.20509091 1.10254545 0 0 Z " fill="#136074" transform="translate(61,114)"/>
<path d="M0 0 C3.81109886 0.59989519 6.03607619 2.34633008 9 4.75 C10.2684375 5.76320313 10.2684375 5.76320313 11.5625 6.796875 C14.02447167 9.02211862 16.00300808 11.35583478 18 14 C17.2265625 13.566875 17.2265625 13.566875 16.4375 13.125 C13.37643275 11.71219973 10.25055082 10.8751483 7 10 C7 9.01 7 8.02 7 7 C6.34 7 5.68 7 5 7 C5 5.68 5 4.36 5 3 C2.525 2.01 2.525 2.01 0 1 C0 0.67 0 0.34 0 0 Z " fill="#11495B" transform="translate(203,75)"/>
<path d="M0 0 C6.47585243 6.10580372 10.51934154 10.86748927 11 20 C10.34 20 9.68 20 9 20 C9 18.68 9 17.36 9 16 C8.01 15.67 7.02 15.34 6 15 C5.15625 13.07421875 5.15625 13.07421875 4.5 10.6875 C3.45753115 7.21260384 2.35622804 4.80503339 0 2 C0 1.34 0 0.68 0 0 Z " fill="#105E74" transform="translate(221,89)"/>
<path d="M0 0 C0.8971875 0.309375 0.8971875 0.309375 1.8125 0.625 C-1.25550712 4.16500822 -3.81224045 5.16658015 -8.1875 6.625 C-8.5175 7.615 -8.8475 8.605 -9.1875 9.625 C-10.5075 9.295 -11.8275 8.965 -13.1875 8.625 C-11.91863036 7.49778564 -10.64732438 6.37331342 -9.375 5.25 C-8.66730469 4.62351562 -7.95960937 3.99703125 -7.23046875 3.3515625 C-2.7141552 -0.46528375 -2.7141552 -0.46528375 0 0 Z " fill="#179CC5" transform="translate(75.1875,104.375)"/>
<path d="M0 0 C4.875 0.875 4.875 0.875 6 2 C6.39898408 3.57263797 6.74476192 5.15895601 7.0625 6.75 C7.23910156 7.61109375 7.41570312 8.4721875 7.59765625 9.359375 C7.99276012 11.95248391 8.07063592 14.38176202 8 17 C6.1727089 14.25906335 5.06301822 11.86174676 3.875 8.8125 C3.34519531 7.46091797 3.34519531 7.46091797 2.8046875 6.08203125 C2.40636719 5.05142578 2.40636719 5.05142578 2 4 C1.34 4 0.68 4 0 4 C0 2.68 0 1.36 0 0 Z " fill="#145C76" transform="translate(174,120)"/>
<path d="M0 0 C0.66 0 1.32 0 2 0 C2.66 2.31 3.32 4.62 4 7 C5.65 6.67 7.3 6.34 9 6 C8.67 7.65 8.34 9.3 8 11 C6.68 11 5.36 11 4 11 C3.32591692 9.73308493 2.66099503 8.46129251 2 7.1875 C1.62875 6.47980469 1.2575 5.77210938 0.875 5.04296875 C0 3 0 3 0 0 Z " fill="#1D5D6E" transform="translate(191,161)"/>
<path d="M0 0 C0.66 0.33 1.32 0.66 2 1 C1.67 1.66 1.34 2.32 1 3 C0.34 3 -0.32 3 -1 3 C-1.33 3.99 -1.66 4.98 -2 6 C-5.80269732 7.6900877 -8.05272168 8.19873962 -12 7 C-10.75146327 6.20602761 -9.50109957 5.41492783 -8.25 4.625 C-7.20585938 3.96371094 -7.20585938 3.96371094 -6.140625 3.2890625 C-4.1171126 2.07052401 -2.18211785 0.90768768 0 0 Z " fill="#136882" transform="translate(133,71)"/>
<path d="M0 0 C-1 2 -1 2 -3.9375 3.0625 C-8.55069729 4.28307512 -13.25492135 4.63719721 -18 5 C-16.68724357 2.37448713 -15.6756418 2.30493495 -12.9375 1.375 C-8.44936494 -0.0563123 -4.68447333 -0.25551673 0 0 Z " fill="#19A0CD" transform="translate(152,68)"/>
<path d="M0 0 C0.66 0 1.32 0 2 0 C2 0.66 2 1.32 2 2 C2.66 2 3.32 2 4 2 C4.33 2.99 4.66 3.98 5 5 C5.66 5.33 6.32 5.66 7 6 C7 6.99 7 7.98 7 9 C8.32 9.33 9.64 9.66 11 10 C11.33 11.32 11.66 12.64 12 14 C6.687634 10.96436229 3.19715034 7.2378846 0 2 C0 1.34 0 0.68 0 0 Z " fill="#2C2C2C" transform="translate(24,196)"/>
<path d="M0 0 C1.79158489 -0.02696365 3.58328473 -0.04637917 5.375 -0.0625 C6.37273437 -0.07410156 7.37046875 -0.08570312 8.3984375 -0.09765625 C11 0 11 0 13 1 C13 1.66 13 2.32 13 3 C13.99 3.33 14.98 3.66 16 4 C12.04 3.67 8.08 3.34 4 3 C4 2.34 4 1.68 4 1 C2.68 0.67 1.36 0.34 0 0 Z " fill="#12A7D6" transform="translate(176,68)"/>
<path d="M0 0 C1.60600892 3.21201784 0.05786315 5.70887021 -1 9 C-1.33 9.66 -1.66 10.32 -2 11 C-2.66 11 -3.32 11 -4 11 C-4.66 12.98 -5.32 14.96 -6 17 C-6.66 16.67 -7.32 16.34 -8 16 C-5.36 10.72 -2.72 5.44 0 0 Z " fill="#232222" transform="translate(171,150)"/>
<path d="M0 0 C0.66 0.33 1.32 0.66 2 1 C0.68 4.3 -0.64 7.6 -2 11 C-2.66 11 -3.32 11 -4 11 C-3.91291331 9.54054712 -3.80473093 8.08234132 -3.6875 6.625 C-3.62949219 5.81289062 -3.57148438 5.00078125 -3.51171875 4.1640625 C-3 2 -3 2 0 0 Z " fill="#1B5C72" transform="translate(163,145)"/>
<path d="M0 0 C1.49080078 0.02707031 1.49080078 0.02707031 3.01171875 0.0546875 C3.77097656 0.07789062 4.53023437 0.10109375 5.3125 0.125 C5.6425 0.785 5.9725 1.445 6.3125 2.125 C1.08504141 3.3313366 -3.45278314 2.88112577 -8.6875 2.125 C-5.26655758 -0.15562828 -4.00562778 -0.09425007 0 0 Z " fill="#0CA4D7" transform="translate(87.6875,101.875)"/>
<path d="M0 0 C2.46278801 2.46278801 2.99771255 4.70676982 4 8 C5.32 7.34 6.64 6.68 8 6 C8 7.32 8 8.64 8 10 C6.35 10.33 4.7 10.66 3 11 C0 4.5 0 4.5 0 0 Z " fill="#179CCB" transform="translate(192,157)"/>
<path d="M0 0 C1.125 3.75 1.125 3.75 0 6 C-0.66 6 -1.32 6 -2 6 C-2 7.32 -2 8.64 -2 10 C-0.68 10.33 0.64 10.66 2 11 C0.02 11 -1.96 11 -4 11 C-3.56179109 6.44262737 -3.14958831 3.42346555 0 0 Z " fill="#195B6F" transform="translate(26,147)"/>
<path d="M0 0 C-0.99 0 -1.98 0 -3 0 C-3.99 2.97 -4.98 5.94 -6 9 C-6.33 9 -6.66 9 -7 9 C-7 6.03 -7 3.06 -7 0 C-3.86650268 -1.04449911 -3.01031744 -0.93423645 0 0 Z " fill="#165C6F" transform="translate(207,158)"/>
<path d="M0 0 C0.66 0.99 1.32 1.98 2 3 C0.35 4.65 -1.3 6.3 -3 8 C-2.74438677 5.6568787 -2.40729228 3.32156597 -2 1 C-1.34 0.67 -0.68 0.34 0 0 Z " fill="#0EA7DB" transform="translate(64,113)"/>
<path d="M0 0 C0.99 0.99 1.98 1.98 3 3 C2.67 3.66 2.34 4.32 2 5 C-2.62 5 -7.24 5 -12 5 C-12 4.67 -12 4.34 -12 4 C-8.04 4 -4.08 4 0 4 C0 2.68 0 1.36 0 0 Z " fill="#2B6C7B" transform="translate(263,153)"/>
<path d="M0 0 C3.77545388 1.09068668 6.47043472 1.9083091 9 5 C8.67 5.66 8.34 6.32 8 7 C7.34 6.34 6.68 5.68 6 5 C4.01643517 4.28591666 2.01684563 3.61382258 0 3 C0 2.01 0 1.02 0 0 Z " fill="#125066" transform="translate(254,146)"/>
<path d="M0 0 C0 3.7794561 -1.04679411 5.79116175 -3 9 C-5.109375 9.6796875 -5.109375 9.6796875 -7 10 C-6.02223933 8.51990357 -5.0427506 7.04094856 -4.0625 5.5625 C-3.51722656 4.73878906 -2.97195312 3.91507812 -2.41015625 3.06640625 C-1 1 -1 1 0 0 Z " fill="#1B94B8" transform="translate(107,93)"/>
<path d="M0 0 C0.66 0.33 1.32 0.66 2 1 C1.01 3.31 0.02 5.62 -1 8 C-1.99 8 -2.98 8 -4 8 C-4 4.09161134 -2.49432124 2.88405893 0 0 Z " fill="#0F576A" transform="translate(32,139)"/>
<path d="M0 0 C0.66 0 1.32 0 2 0 C1.46930939 3.82097239 0.50298434 6.06171403 -2 9 C-2 6.69 -2 4.38 -2 2 C-1.34 2 -0.68 2 0 2 C0 1.34 0 0.68 0 0 Z " fill="#0E4A5B" transform="translate(172,124)"/>
<path d="M0 0 C0.99 0.33 1.98 0.66 3 1 C3 3.31 3 5.62 3 8 C2.34 8 1.68 8 1 8 C0.67 5.36 0.34 2.72 0 0 Z " fill="#1D738D" transform="translate(189,153)"/>
<path d="M0 0 C0.598125 0.226875 1.19625 0.45375 1.8125 0.6875 C0.8225 0.6875 -0.1675 0.6875 -1.1875 0.6875 C-1.1875 2.0075 -1.1875 3.3275 -1.1875 4.6875 C-1.8475 4.6875 -2.5075 4.6875 -3.1875 4.6875 C-3.5175 5.3475 -3.8475 6.0075 -4.1875 6.6875 C-4.875 4.875 -4.875 4.875 -5.1875 2.6875 C-3.58493056 0.24147296 -2.95482043 -0.4221172 0 0 Z " fill="#1399C5" transform="translate(175.1875,119.3125)"/>
<path d="M0 0 C0.66 0.33 1.32 0.66 2 1 C0.02 3.97 0.02 3.97 -2 7 C-3.32 6.67 -4.64 6.34 -6 6 C-4.02 4.02 -2.04 2.04 0 0 Z " fill="#1E96BE" transform="translate(117,82)"/>
<path d="M0 0 C2.64 0 5.28 0 8 0 C8 0.99 8 1.98 8 3 C4.62537285 2.45276317 2.91765 1.9451 0 0 Z " fill="#1C7791" transform="translate(90,101)"/>
<path d="M0 0 C1.485 0.99 1.485 0.99 3 2 C2.01 2 1.02 2 0 2 C0 1.34 0 0.68 0 0 Z " fill="#000000" transform="translate(126,287)"/>
</svg>
